<?xml version="1.0" encoding="UTF-8"?><svg id="b" xmlns="http://www.w3.org/2000/svg" viewBox="0 0 1000 1000"><g id="c"><rect id="d" width="1000" height="1000"/></g><g id="e"><path d="M399.24,366.13l-.37,6.4-.75,6.4-1.12,6.03-1.87,8.28-1.87,5.27-3.37,7.53-2.62,4.9-4.49,6.78-3.75,4.52-4.49,4.52-4.49,4.14-7.49,4.9-4.87,3.39-5.62,3.01-5.24,2.64-8.61,3.01-11.23,3.77-5.99,1.13-9.36,1.51-5.62.75-8.24.75-5.24.38-8.61.38-17.98,1.13h-8.24l-5.24-.38-8.61-.75-5.62-.75-6.37-1.13-5.62-1.88-8.24-2.64-5.24-2.64-5.62-2.64-5.24-2.64-4.87-3.01-11.98-8.28-4.49-3.77-6.74-5.27-4.49-3.77-4.12-4.14-3-3.39-.37-2.64,1.87-3.39,1.5-1.88,3.75-4.14,10.49-9.79,3.37-4.14,6.37-9.79,3.37-4.14,3.74-4.14,4.12-2.26,4.12.75,4.12,3.01,11.98,8.28,5.62,3.01,5.24,2.64,8.61,4.14,5.62,1.88,5.99,1.88,5.99,1.13,8.61.38,5.99.38,23.59-1.51,5.99-.75,3-.75,5.62-2.26,4.87-3.01,3.74-3.77,1.87-2.64,2.25-5.65-.37-6.4-.75-3.01-3-5.27-1.87-2.26-4.87-3.77-3-1.13-5.62-2.26-6.37-1.51-6.37-1.13-35.58-3.39-11.23-2.26-5.99-1.51-8.24-3.01-5.62-1.88-5.62-2.64-12.73-6.4-4.87-3.39-5.62-3.39-4.87-3.39-6.37-5.27-3.37-4.9-3.37-5.65-2.25-5.65-2.62-7.91-1.12-5.65-1.12-8.28-.75-12.05.37-6.02.75-9.04,1.12-5.65,1.5-4.9,1.87-5.65,3.75-8.28,2.62-5.27,3-4.52,3.74-4.14,5.99-5.65,4.87-3.77,4.87-3.39,5.24-2.64,7.12-4.14,11.23-4.52,5.62-1.88,8.61-1.51,5.99-1.13,11.23-1.51,8.24-1.51,5.99-.75,5.62-.38h5.99l11.23,1.13,5.62.75,2.62.75,5.99.75,12.73,2.26,6.37,1.51,5.99,1.88,6.37,1.88,5.99,2.26,5.62,2.64,5.62,2.26,7.12,4.14,5.24,2.64,4.87,3.39,3.37,3.39v3.77l-2.25,4.14-4.12,7.53-3,4.52-14.23,18.83-4.12,5.27-4.49,3.77-3,1.13-2.62-.38-3.75-1.88-5.62-3.39-5.62-2.26-2.62-1.13-5.62-1.88-3-.75-6.37-1.51-8.61-1.88-5.99-.38-9.74-.75h-9.74l-6.37.38-6.37,1.13-5.99,1.88-2.25,1.13-4.49,3.39-1.87,2.26-2.62,5.27-.75,6.03,1.12,4.9,3,4.9,4.12,3.77,4.49,2.26,2.62,1.13,5.62,1.13,9.36,1.13,12.73.75,6.37,1.13,12.73,3.01,11.98,3.77,8.61,1.88,5.62,1.51,10.49,3.77,7.49,3.39,5.24,2.64,5.24,3.01,4.87,3.01,10.86,9.04,4.12,4.52,3.74,4.52,4.49,6.78,3,4.9,2.62,5.65,1.5,5.65,1.5,8.28.75,5.65.37,6.4ZM195.15,387.59l-.37.38h-.37l-.37,1.51,1.12,1.51v-3.39ZM199.27,275.75l-1.12.38-.75,3.01,1.5.75-.37-2.26.75-1.13v-.75ZM199.27,253.54h1.12l.37-.38v-.75l-.37-.38h-.75l-.37,1.51ZM199.64,224.92l.37.75h1.12l-.75-1.51h-.75v.75ZM201.51,286.67l-.75-.75-.75.75.37,1.13h.75l.37-1.13ZM202.26,219.64l3.37,7.53.75-7.15-1.12-1.51-2.25-.38-.75,1.51ZM202.26,264.08l1.12,1.13,2.62-.38.37-.75-1.12-1.13-3,.38v.75ZM207.13,285.17l-1.87-2.26-1.12-.38-.75.75,1.5,2.26v1.51l2.25-1.88ZM204.51,253.54l-.37.38v.75l.75.38h.75l.37-.38-.37-.75-1.12-.38ZM204.51,214l1.5.75v-.38l.37-.75,4.12-.38-2.62-1.51-3.37,2.26ZM204.88,244.5l.75.38v-1.13l-1.12-.75v1.13l.37.38ZM210.13,403.41l-1.5-1.13v-1.51l-.75-.38-2.25,2.64,4.49,2.26v-1.88ZM207.88,220.77l1.12-.75v-.38l-1.5-.38-.37,1.13.75.38ZM216.49,258.81l-1.5.38-1.12-.38-1.12,1.13h-3l-.75,12.43,1.87.75-.75-7.15,1.12-1.13,1.5-.38.75,1.51,2.62-.38.37-6.78ZM210.13,227.55l3.37-.75.37-3.01-.75-.38-1.5,1.88-1.5,2.26ZM250.57,201.57l-.75-2.26,2.25-1.13h2.25l.75-.75,1.5-.38v2.26l4.12,2.64.37,1.13-.75,1.88v1.13h.37l.37.38,1.5-5.27,3-.38v4.52l-.37.38v.75l1.12.75,1.12-2.64,1.87-1.13.37.38h.37l.75,2.26,4.12,3.77,4.12-.38,2.25-2.64-1.12-1.88-2.25,1.88-1.87-.38v-.75l1.5-1.13.37-3.77,5.99-1.88-4.49-1.88-.75,1.51-2.62-.75-1.5-1.51h-1.87v4.14l-3.37,2.64v-.38l-5.24-4.14,1.12-2.26-1.87-2.26-1.12-.38v-.38l-2.25-1.13-1.5,3.01-3.75-2.64-2.25,1.13-1.5-.75-1.87.75.37,1.51,1.12.75-.37,1.51h-7.86v.75l-1.12,1.88-2.62,1.13-3.37-2.26-1.12.75-1.12,7.91-3.75,1.88-1.12-.75-1.12-2.26.37-5.27-5.24.38-.37.38-2.62-.38-2.25-1.51-1.12,1.88,2.62.75-6.74,5.65v1.51l.75.75h.75l1.87-1.51-.37-1.13,1.87-2.64,6.74-1.13.75.75-.37,1.13.75,1.13-3.37,3.01,4.12-1.51,3.75,2.64,5.24-2.26,1.12.75,1.5-1.13,1.12.75,3.74-1.13,1.5-2.64,7.49-4.14ZM215.74,276.88h-.37l-.75.75v.75l.75-.75v-.38l.37-.38ZM218.74,221.9l-2.62.38v.38l.37.38h1.12l1.12-1.13ZM224.73,407.18l-1.5-.75-3.37.75-1.12-1.88-1.12-.38-.75.75.37,1.88,7.12.38v-.38l.37-.38ZM224.36,220.77l-3.74-2.64-1.87-1.51-1.5-.38.75,3.39,2.25-1.13,1.12,2.64,3-.38ZM222.86,296.84l-3.74,3.77,1.5.38,2.25-1.13v-3.01ZM219.86,400.4l.37.38h.75l-.37-1.88-.75.75v.75ZM223.98,430.9l-1.12-.38h-1.5l-.75.75.75,1.51,2.62-1.13v-.75ZM225.48,215.88l1.12-.75-.75-1.13-2.25-1.13-.75,1.51.75,1.51h1.87ZM223.23,196.67l1.12,1.13h.75v-1.13h-.75l-.37-.38-.75.38ZM227.73,277.26l-1.5,1.13-.75,1.88.37.38h.75l1.12-1.13v-2.26ZM234.09,215.88l-1.12-.38-3,1.88,1.12,1.51,3-3.01ZM238.59,306.63l-1.12-7.15-.37-.38.37-2.64-.37-.38-.37,1.51-2.25,1.13-.37-.38v-1.13l.37-.38-.37-.38h-.37l-2.62,3.01,1.5.38.37-.38,1.5,3.01h.75l1.87,4.14.75.38.75-.38ZM232.22,226.42v.38h.37l.37.38.37-.75v-1.13h-1.12l-.37.75.37.38ZM232.59,191.78l1.12,1.13,10.11,1.51,2.62-3.39-12.36-.38-1.5.75v.38ZM232.97,287.05l1.87-.38-.75-.75-.75-.38-.37.38v1.13ZM237.09,321.69l-2.25-3.39,1.12-1.13h-.75l-.37-.38h-.75l.37,3.77,2.62,1.13ZM240.08,223.03l-1.12.75-1.5-.38-1.12.75.37,1.51,1.87-.38,1.12-1.13.37-1.13ZM240.08,215.88l-1.5-.75-1.12,1.13v1.51h1.87l.75-.75v-1.13ZM244.2,415.84l-1.12-1.13v-1.13l-5.62,3.01v.75l4.87,1.13,1.5-1.13.37-1.51ZM240.08,205.71h1.5l-1.12.75-1.5.75-1.12-.38.37-.38v-.38l1.5-.38.37-.38v.38ZM243.83,439.94l-1.12-1.13-1.87-.38-.37.38-1.5-.38-.75.75.75,1.13,1.87-.38,1.5,1.13h1.12l.37-.38v-.75ZM243.45,221.9l-.75-1.13-.75.38-.37,1.13h1.5l.37-.38ZM244.58,201.95l.37.38v.75l-1.87.75v-1.13l1.5-.75ZM244.2,231.32l.37.38,1.5.38-.75-1.51-1.12.75ZM249.45,221.15l-1.5-.75-2.25,1.51h-1.12l1.87,1.88,3-2.64ZM245.7,212.11l.75-.75v-1.51l-1.5-.38v1.51l.75,1.13ZM250.57,426.76l-1.12-.38-.75.38-.37.75.37,1.51.75.75,1.12-1.51v-1.51ZM268.17,309.64l-.75-3.01-1.87,3.39-4.87,2.64-5.99-3.39-1.12-3.01-3,2.64,2.62,2.64,1.12-.75,1.5.75-.75,3.39,1.87,2.64,1.5-.38.37-1.13-.75-.75v-1.13h5.99l.75-1.13h3l.37-3.39ZM256.56,221.15l-.75-1.51-4.12.38-.75-.75.37,1.51,2.25,1.88h1.87l-.37-.38,1.5-1.13ZM252.82,402.66l-.75-.75h-.75l-.37,1.13.37.38h.75l.75-.75ZM257.68,211.36l-4.49-4.14h-.75l-.37.75.75,1.13v3.39l3,.75.75-1.51,1.12-.38ZM252.44,186.13l.37,1.51,1.12-1.13.37-1.51-.37-.38h-.37l-1.12,1.51ZM258.43,204.2l-3.75-1.51-.37-.75-1.87,3.01,1.5.38,4.49-1.13ZM252.44,299.48l1.5.38,1.5-2.26,2.25,1.88h1.12l3.37-4.9-1.87,1.88-1.87.38-4.87-3.39.75,2.26-1.87,3.01v.75ZM253.94,217.01l.75-.38,1.12-1.51-.37-.38-1.87.75.37,1.51ZM254.31,188.77l-.37,1.13v1.13l.75.38.37-.38v-1.51l-.75-.75ZM257.68,439.56l-.75-3.39-3-1.13.37,5.27,1.5.75,1.5-1.13v-.38h.37ZM257.68,412.45l-1.12-.38-1.12.38,1.12.38,1.12-.38ZM256.19,185l.75.75,1.12-1.88-.37-.38-1.12.75-.37.75ZM262.18,219.27l-1.12-1.13-.37-.75-.37-.38.75-1.51-1.12-.75-1.12,1.13.75,3.39,1.87,1.51.75-1.51ZM266.67,214l-.37-4.14-6.37.75.37,1.51,5.24,1.88.37,1.13.75-1.13ZM263.3,191.02l2.25.75h.75l3.37.38v1.88l-.75.75v.75l.75.38.75-1.13h.75l3.37-3.01-.37-1.88h-9.74l-.37.75-.75.38ZM272.29,444.46l-1.12-.75-1.87-.38-1.5,1.13h2.62l1.5,1.13.37-1.13ZM273.79,212.11l-4.87-4.14-.75,1.51.75,3.01,3.37.75,1.5-1.13ZM269.29,184.25l5.24-.38,1.5,1.13,1.87-.38-5.99-2.26-2.62,1.88ZM278.28,214l-.75-1.51-1.12.38-1.5,1.88-.37,1.51,1.12,1.51,2.25-.38.37-3.39ZM277.91,192.15l-.75.75.37.38,1.5-.38v-1.13l-1.12.38ZM280.53,436.93l-.37-1.51-1.87-.38h-1.12l.37,1.51.37.38v.38l1.5.75,1.12-1.13ZM278.66,188.39l.37.38.75.38h.75l.37-.75-.37-.75-1.5-.38-.37,1.13ZM281.28,192.15l-1.5,3.01,1.12.75.75-.38,1.12-3.77,1.5-1.51h2.62l-.75,4.52-3.37,3.01,3.37.75,3.37-3.01v-1.13l6.74-5.27,1.5,1.13.37,1.88-1.12,2.26,2.62,7.91-1.87-1.51-.75-3.39-1.5-.75.75,2.64-3.37,1.88,1.87,2.26,1.5-.75.37,1.88-1.87.38-.75,2.26-2.62,1.51-4.49-.75,2.62-3.77-3.74-.38-.75,3.01h.37l.37.38-3.74,6.4,4.87,4.9v-2.26l4.49-1.51-4.87-1.88v-2.26l.37-.38h.37l.75.75.75-.38v.38l6.37,1.13,1.5,1.51.37,1.88,2.62-1.88,1.5.38,1.5,3.01.75-1.13,1.87,1.13-.37,2.64-.37.38v-.38h-3l1.12,1.13,1.87.38.37.38v.38l1.12-1.51.37-.38.37-.75.75,1.51-1.12,2.64.75,1.51,3.37-.38-1.5-1.13v-3.01l4.49-1.88,1.87-3.01-.75-.75v-.38l-4.12-2.26-.37.38-1.5.75-1.12-.38v-3.39l-1.5-1.88v-.38l-1.5,1.51-3-.75v-2.26l1.5-.75-3.37-2.64h2.25l1.5-1.13-1.12-1.51.37-3.01h1.5l.75,1.13,1.87.75.37,1.51-.75,3.01h.37l4.12,3.39-.37-.38v-.38l3.37,6.02,1.87-.38,1.87-3.77v-.38l6.74-.38-.37-1.13h-1.12l-.37-.38-.37.38-.37-.38v-.38l1.12-1.13v-1.51h-11.61l-.37-1.88,10.49-2.64-14.23-15.44-1.5.38v.38l.37.38h.37l1.12,3.39-.75,3.39h-1.12l-1.5-.38.37-1.88-3-3.39h-2.62l-1.5,1.13-2.25.38-1.12-.75-1.87.38.75,1.13h1.12l1.5,2.26-.75-.75-1.87.38-.37-.38-4.49,1.51-2.62-3.39-2.25-1.13-.37,1.51v1.51l-1.5.75v3.01ZM282.4,310.77l1.87.38,1.5-.75.37-1.13h-3.37l-.37.38-1.12-.75-1.12.38.75,1.13h1.12l.37.38ZM282.4,203.45h.37l.37-1.13-.75-.38-.75.75.75.75ZM287.27,313.41l-1.12-.38-1.87,1.13.37,1.13,2.25.38.37-2.26ZM289.14,221.9l-.37-1.51h-.37l-.75.38v1.51l1.5-.38ZM289.52,203.07l1.5-3.77,2.62-1.13h-.37l-2.62-.75-2.25,3.39,1.12,2.26ZM290.26,326.97l-.75-.38-.75.75.37,1.13,1.12-1.51ZM295.13,324.71l-.75-.38h-.75l-.37.75.75,1.13.75-.38.37-1.13ZM295.51,220.02h-.75l-.37.38.37,1.13h.37v-.38l.37-1.13ZM301.87,189.52l-1.5,1.13v-1.88l1.5-.75v.75l-.37.38v.38h.37ZM303,194.79l-2.62-1.88.75-1.13h1.12v.38l.37.75.75.38-.37,1.51ZM301.87,226.05l-.37-1.51-1.12-1.88.37,3.39h1.12ZM303.75,305.5l1.12.75,3-.75,1.5.38-1.87-4.14-1.5-.38-1.87,1.88-.37,2.26ZM310.49,317.18l-2.62-.75-3,1.51,3,1.88,2.62-.38v-2.26ZM309.74,423.37h-3l-.37.38v.75h1.5l1.87-1.13ZM313.86,299.85l-2.62-1.13h-2.62l-.37,1.13.75,1.13,4.87-1.13ZM316.1,419.23l-.37-2.26h-.75l-.75.75,1.12,1.51h.75ZM316.48,220.02l-1.12-1.13-.37,1.13.37,1.13,1.12.38v-1.51ZM317.23,317.93l-2.25,1.13,1.12,1.51v.38l1.12-3.01ZM325.47,221.53l-3-4.52h-1.12l-1.12,1.51,1.5,3.77-1.12,2.26-5.24.38.37,3.77-.37.38.37.38v.38l9.74-8.28ZM316.48,222.28l.37,1.13h.75l1.5-1.51-.75-1.13h-.37l-1.5,1.51ZM321.35,330.36l-1.12-1.51h-2.62l-.37.75.75,1.13,3.37-.38ZM325.09,212.11l-.75-1.13-.37-.38-3.75-1.51v-.38h-1.12l-1.5,2.26.37,2.64,4.12,2.26,3.74-.75,1.12,1.13v.75h.75l1.87-2.64v-.75l2.62-1.51v.38h.37l1.12,1.51,2.25-1.13v.38l1.87.75,2.25-5.27-3.74-4.9v.38l-2.62.38.37-3.77-1.87,1.51-.75,3.01,1.5,1.88v1.88l-3,.75-.37,1.88-3.37-.38-1.12.75ZM322.1,308.52l-.37-.75-2.62-.38-1.12,1.13.37.75.37,1.13,1.87.75.75-.75v-1.13l.75-.75ZM325.84,419.23l-2.62-2.26-.37-.38v-.38l-2.25,1.13-.37,1.51.37.38h1.12l1.12-.75,3,.75ZM330.71,231.69l-1.87-2.26.37,4.14h-1.5l-2.25-2.64v-.75l-3.74-1.51-.37,3.01,2.62-1.88,6.74,7.53v-5.65ZM325.09,438.06l-.75-1.13h-2.25l-.37.75.37,1.13h.75v.38l1.87-.38.37-.75ZM370.78,403.03l-2.25-.38-4.12,1.51-4.12-5.27-1.12,3.01,1.87,4.9-1.5,2.64-3-14.31-2.25-.38-.37-.38h-.37l-3.37-2.26-5.62,3.01,1.5,3.39-.75,3.39-3-3.77v-.38l-.75-1.13-8.24-3.39-2.62-4.14,1.87-3.01,1.87-.38.75,1.88,1.5.75,1.5-.75-2.25-3.39v-.75l3.74-1.51-3.37-2.64-3,.75-3.37,3.39-.75,4.9-4.12,4.52-2.62.75,1.5,2.26,4.49-1.88,1.87.75,2.62-.75,5.24,3.77v2.64l2.62,1.51-.75.75,6.37,3.77,1.87-.75.75-1.51-.37-.75,5.24.75,2.62,3.39-3,3.01-1.87-1.13-.37-1.51-.75-.38-.37.38v11.3l-.75.38-4.49-3.01h-1.87l-1.12-6.02-2.62-3.01-4.12,2.64v.38l-.75,1.13.37,2.26,1.87,1.13,1.87-.75-.37-1.13,1.12-1.13,3.74,7.15,2.25.38,1.12,2.64,3,.75,8.24-7.91h.37v-.38h3.37l4.12-3.39v-.38h.37v-.38l.75-.75,1.12.75,1.12-.38v-1.88l-1.5-1.51v-.75l3.37-3.01ZM331.83,416.21l-1.5-1.51-4.12-6.78-1.87-.38-.75,1.13,4.49,6.78,1.87.75-.75,1.88.37,1.51,2.25-1.13v-2.26ZM325.47,426.76l-.37-.38-.75.38-.75,1.51,1.5.38.37-1.88ZM332.21,404.92l-1.5-6.03,1.12-.75-.37-1.13-1.12-.38-.37,1.13-2.25,1.88-1.87-.75-1.12.75-.75,2.26.37.75.75.38,1.5-.38,5.62,2.26ZM326.96,228.31h1.12l1.87-.38-3.37-.75.37,1.13ZM326.96,314.16l1.87,3.39h3l-2.62-4.14h-1.5l-.75.75ZM328.09,407.93l1.5.38v-.75l-.75-1.13-1.12-.38.37,1.88ZM332.58,221.53l-.75-1.13-1.87,1.88.37,1.51-.37.38,1.5.38,1.12-3.01ZM332.58,322.07l-.37.38,6.37,1.51,1.12,1.88,3,1.13.75-.38-9.74-7.53-1.5,1.13.37,1.88ZM337.07,423.37l-1.5-.75-2.25,1.88.37,1.13,1.12.38,2.25-1.13v-1.51ZM338.95,223.79l-.75-3.39h-1.5l-3,4.14,1.87,2.64,1.5-.75,1.87-2.64ZM336.7,354.83l-.75,1.13,3.74,1.51v-1.88l-1.12-1.13-1.87.38ZM338.95,343.54l-.75-1.13h-.75l-.37.38v.38h.37l1.5,1.51v-1.13ZM337.82,378.93l3.75,2.64,2.25-.75-1.12-2.64-3-.38-1.87,1.13ZM339.7,348.43l-1.5-.75.37,1.88,1.12-.38v-.75ZM340.07,366.13l-.75,1.88h1.87l.37-.38h.37l1.12-1.51-.37-.75-.75-.38-1.87,1.13ZM340.07,374.42l-.75,1.13,5.62.38-4.87-1.51ZM341.19,370.27l1.5-.75v-.38l-2.25.38.75.75ZM342.32,356.34l1.12-3.01-.75-1.88h-.75l-.75.38,1.12,4.52ZM341.57,230.19l.75,1.88,1.12,1.13,1.5-.38.37-1.88.75-.38-.75-1.51-3,.38-.75.75ZM345.69,385.71h1.12l.37-.38h.37l.75-.75-6.74-2.26,1.87,1.88h.37l1.87,1.51ZM342.32,372.91l.75,1.51,1.12-.75-.37-.75h-1.5ZM344.56,388.72h-1.12l-.75.75v.75l1.5,1.13,1.12-.38v-1.13l-.75-1.13ZM343.44,223.79l1.12,2.26,1.12.38h.75v.38l.37-.38.37-1.51-1.12-2.26-2.62,1.13ZM344.56,359.73l.75.75.75-.38.37-1.13-1.12-.38-.75.38v.75ZM345.31,349.18l1.12,1.13.75-1.51-.75-1.51h-.75l-.37.38v1.51ZM346.06,368.39l-.75,2.64,2.62,1.51v-2.26l-.37-.38-.37-2.64.37-.38-1.12-1.13-.37,1.88-.37.38v.38h.37ZM348.31,381.57v1.13l3,4.14h.75l.37-.38v-1.51l-2.62-1.88-.37-1.88-.37-.38v-1.13l-.75-1.13-1.5-.38-1.12.38-.37,1.13.37.38v.75h1.5v.38l1.12.38ZM346.06,411.7l1.12.38.75-.38.37-1.51-1.5-1.51-1.12.38-.37,1.51.75,1.13ZM346.06,324.33l2.62,1.51,3-.38,1.12-1.51-1.12-2.26-1.12-.38-.75,1.13h-1.5l-1.12.75-1.12,1.13ZM347.93,374.79l-.37-.38-1.12.75v.38l.75.75,1.12-.75v-.75h-.37ZM347.56,231.32l1.87-.38v-.75l-1.12-.38-.75,1.51ZM350.93,360.11l-2.25.75-1.12,2.64h.37v.38h.37l.37.75h9.74l-.75-1.51-6.74-3.01ZM351.3,344.67l-1.12-.38-1.5.38,1.12,1.13h1.12l.37-.75v-.38ZM351.3,356.72l-.75,1.13h1.5v-.38l.37-.38-.37-.38h-.75ZM353.93,377.43h-.75l-1.5,1.51h1.87l1.12-.75-.75-.75ZM373.02,378.56l-4.49,7.53v.38l-4.87,2.64-8.61-9.41-1.87.75-1.12,1.51v.38h-.37v.38l2.62,3.39,1.87-.75,1.87,1.13-2.62,4.14,1.5,3.77,1.87.38.75-1.13-.75-1.51.75-1.51,7.86,1.13,1.5-2.26,3.75-.38.37-2.64v-7.91ZM356.17,371.4l-2.25-4.9-.75,2.64,1.12.38-.37,2.64-.75.38,3-1.13ZM357.3,355.96l.37.75.37.38.75-.75v-.75l-.37-.38-1.12.75ZM359.54,374.42l-2.25,2.64,4.49-.38.75-4.9-2.25-2.26-1.5,1.13.75,3.77ZM359.17,358.22l-.75-.38-.75,1.51.37,1.88,2.25,1.51.37-1.13h.75l.37-.75-.75-1.13h-.37l-1.5-1.51ZM362.54,396.26v-1.13h-1.12l-.75,1.13v.75l1.87-.75ZM361.42,355.96l1.12,1.51,1.5-.38.37-.38-.37-1.51-2.62-.75v1.51ZM364.04,366.88h-1.12l-.75.75h-.37v.38l-.37.38,4.87,5.65h.37l.37-.38-3-6.78ZM368.91,375.17l-2.25,1.88-4.49,5.27,1.5,1.51,3.74-.38,2.25-5.27-.75-3.01ZM367.03,353.33l1.12.38.37-1.13-.37-.75-.75.38-.37,1.13Z" style="fill:#f6f6f6;"/><path d="M599.64,558.17l17.48-.38,23.3,1.51,4.73.38,2.91.75,2.18,3.01,1.46,3.77,1.46,5.27,3.64,12.43,1.82,6.03,8.74,19.58,2.18,6.02,7.28,19.96,2.18,6.03,7.28,23.72,2.18,6.03,8.01,23.35,9.1,30.13,1.82,4.14,2.55,1.51,3.28-1.51,2.18-4.14,8.74-23.35,1.82-6.02,5.83-24.48,1.82-6.03,10.19-22.59,1.82-6.03,6.19-20.71,1.82-5.65,9.1-19.96,1.82-5.65,3.64-13.93,2.18-6.4,2.91-4.9,2.55-1.51,4.37-.75h2.55l5.83-.38,9.1.75h23.3l16.75-1.13,6.55.75,4.37,1.13,2.18,2.26,1.09,3.39-1.09,4.9-1.09,3.39-2.18,6.03-5.1,10.17-2.55,5.65-6.55,21.09-2.55,5.65-9.47,19.96-2.55,5.65-6.55,20.71-2.18,6.03-7.65,20.33-2.18,6.03-8.01,20.33-2.55,5.65-9.83,19.96-2.55,5.65-8.01,20.33-2.18,6.03-8.74,19.58-2.18,6.02-8.37,20.33-1.46,4.14-2.18,1.51-4.37.38-26.58-.38-5.83.38-20.39,1.88-6.19.38-4.73-.75-2.55-2.64-2.18-4.52-8.01-19.96-2.18-5.65-9.47-20.71-2.18-5.65-8.01-19.96-2.18-6.02-6.55-20.71-2.18-6.03-8.74-19.96-2.18-5.65-9.47-20.71-2.18-5.65-7.28-20.33-2.55-6.02-8.74-19.58-2.18-6.03-6.55-21.09-2.18-5.65-6.55-10.92-2.18-5.65-1.09-3.39-.73-4.9,1.09-3.39,2.55-2.26,4-1.13,2.18-.38h5.46l16.38,1.13ZM652.07,694.49l-.73.38-.36,1.88,1.09,2.26.73-4.52h-.73ZM664.82,714.82l-1.09,2.26,1.09,1.51h1.82l2.18,2.26-1.09-6.4-1.09-.75-1.82,1.13ZM667,752.1l-1.09,1.88h.73l.36.38.36-.38h1.09l.73-.38v-.38l-.73-1.13h-1.46ZM671.37,794.66l-.36-10.17-.73-.75-.36-3.77-1.82-.75,3.28,15.44ZM677.92,722.36v3.01l9.83,3.39.36-.38.36-.75-2.18-2.26-4.73-.38-1.46-2.64-1.09-.38-1.09.38ZM683.02,714.45l-.36.38.36,1.88h.73l.73-1.51-.36-.75h-1.09ZM687.03,782.98l-1.09,5.65h.73l.36-.38,1.09-.38.73-4.9h-.36l-.36-.38-1.09.38ZM687.39,800.68l.73,2.64-1.82,5.27,3.64-.38,4.01-3.77-.36-4.14-6.19.38ZM691.4,758.51l1.46,6.03,1.46.38,1.82-1.13.73-2.26,1.46-1.13-1.46-1.13-4-.75-.36-.38-1.09.38ZM704.87,764.53l-1.09,1.13.36.38,1.09-1.51h-.36ZM719.79,802.94l4.37.75,3.64-2.26-.36-1.13-4.73-2.64-2.91,5.27ZM725.62,757.75l-1.09,1.51v1.88l1.09,1.88,2.55-4.52-1.46-1.13-1.09.38ZM730.35,785.24l-1.82.75,1.82,1.88,2.55.38.73-1.88-1.09-1.51-2.18.38ZM730.72,732.52l1.46,1.88,2.18-.38,1.09-4.52-4.73,3.01ZM739.82,707.67l3.28-1.51.36.38-2.18,2.64h-.36l-.73.75-.36-.38-.36.38-1.82.38-1.82-.75-.36-1.13h-.73l-1.09,1.51.73,3.39v2.26l2.18-.75.73-1.88,6.55.75,1.09-.75,8.74,3.77.73-.75-9.47-9.04-.36-2.64-3.28-.38-1.46,3.77ZM737.63,769.8l-.36,1.13-1.82.38-.73,1.13.73,1.51,1.82-.38,1.46-3.77-.73-.38-.36.38ZM735.45,722.73l1.82.75,1.82-.38.73-3.01-1.46-3.01-2.91,5.65ZM748.56,734.03l-4.73.38v-2.64l-2.18-1.13-1.82.38-1.09,4.9-2.18,2.26-.36,1.88,3.64,1.51,1.82-1.13,4.37,2.26,8.01-19.21-1.09-3.77-4.37,14.31ZM740.18,747.21l.36,1.13,1.46.38.36-1.88-.36-.38-1.82.75ZM747.46,676.79l-1.82,1.88-.73,3.01-4,3.77,2.55,6.03,1.82-4.9,1.09-4.9,6.92-1.88-1.09-1.88-2.18-.75v-.38l-2.55-.38v.38ZM743.1,761.52l-1.09,1.88,1.46.38,1.09-1.88-.73-.75-.73.38ZM743.46,750.6l-1.09,1.13v1.88l1.09,1.51,1.82-.38,1.09-1.51v-1.88l-1.46-.75h-1.46ZM745.28,697.88l2.18-1.51-4-1.51,1.82,3.01ZM744.19,717.46l-.73.75v1.13l1.09.75,1.82-.75-1.09-1.88h-1.09ZM746.01,726.5l.73,1.13h1.82l-2.18-2.26-.36,1.13ZM746.37,702.4l1.46,4.9,1.82-2.64,1.46-1.51-.36-3.77-3.28-.38-1.09,3.39ZM746.74,662.86l3.28,2.64,3.64-.75-2.91-3.01-4,1.13ZM758.39,658.71l-5.46-1.88-.36.38,5.83,7.16-1.46,4.14-7.65,3.39v2.64l3.64,2.26,1.82-.38,4.73,3.01-1.09,1.51-8.37,1.88-2.18,5.65,3.28,2.64-1.09,6.78,3.64-.38,1.46-4.52,2.91,1.51,1.09,3.39-2.91,2.64,2.91.38,2.18-2.64,2.18,2.26-.73,3.39-3.64.75-1.82,1.88-2.91-.75-1.82,1.51,4,1.51,2.18,7.53-2.91.75v3.01l4-3.01.36-2.26-1.09-1.51v-1.51l1.09-.75-1.46-1.88-2.18-.38.73-2.26h2.55l1.46-1.88-.36,3.77,2.55,4.9,1.46.38.73-1.13-1.09-3.01.36-1.13,2.55.38.73-1.88-1.46-1.88,2.18-.75,2.18,3.39-1.09.75v4.14l-3.64,3.77-.73,3.39,3.28-3.01,4.37,2.26,4-3.01.36-1.88,1.46-1.13v.75l.73.75,1.46-1.13-.73-8.28-2.91.38-7.65-6.4v-.75l-1.82-.38.36-1.51-.73-1.51,2.91-9.04-1.46-1.88-1.82,1.13-.36,2.26-1.82-.38-1.09-1.51,1.09-2.26-.73-2.26-2.91-1.13,1.82-9.79,2.18-.38,1.46-3.01,1.82-.38,1.46,4.9,1.46-1.51,2.18,1.51-.73,6.4,3.28.75,1.46-3.39,1.09-.75,8.37,3.77,3.64-1.51,1.46.38,2.18-2.64-1.09-1.88-9.83-.75-6.92-.38-3.64-8.66.73-3.01-2.18-1.88-7.65.38-3.28-3.39-2.55,4.14ZM754.02,747.59l-1.82,1.13-.36,1.13,1.46.38,1.09-1.13,1.46-2.64-1.46-2.64-.36,3.77ZM754.38,730.64l-1.46,1.51.36,1.88,1.82.38,2.18-4.52,2.18-.75-3.64-1.88-1.46,3.39ZM754.75,765.66l-.73,2.26,5.83.75-2.55-3.39-2.55.38ZM755.47,774.7l1.09,1.88h1.09l.73-.75v-.75l-1.46-.38h-1.46ZM758.39,641.77l.36,4.52h1.46l1.46-1.13-.36-4.14-1.09-.75-1.82,1.51ZM758.75,723.11l7.28,3.01.73-.75-3.28-3.77-4.73,1.51ZM759.48,650.05v1.88l.73.75.73-.38.36-3.77-1.82,1.51ZM760.94,733.65l-1.09,1.51,2.18.38,1.09-1.13v-.75l-.73-.38-1.46.38ZM764.21,744.2l-1.46-1.51-1.09,2.26h5.83l1.82-3.39-5.1,2.64ZM764.58,649.68l-.73,2.26,1.82,3.39,3.28,1.13,1.46-1.51-.36-4.9-1.09-1.51-4.37,1.13ZM766.76,673.4l2.91,2.64-2.18,3.01,2.91,1.88.73.75h.73l.73-1.88-4-10.17-1.82,3.77ZM770.04,637.25l-1.82,1.51-.36,2.26,3.64-3.01-.73-.75h-.73ZM770.04,723.86v1.51h1.82l1.82-1.13-1.82-.75-1.82.38ZM771.13,645.53v2.26l1.46,1.88h1.82l.36-3.01-1.82-3.01-1.82,1.88ZM775.14,684.7l1.46,1.51.36,3.01-5.83,6.78,3.64-.75,4,3.39,1.46-.38.73-1.51-3.28-3.01,2.91-3.01.36-1.51-3.28-5.27-2.55.75ZM774.04,639.13v1.13l.73.75h1.09l.36-1.51-.36-.75-1.82.38ZM778.41,648.55l-2.91,4.52,2.18,3.39.36-4.9,1.09-.38,2.18.75,5.83,10.92,1.82-3.01v-3.01l-4,1.51-6.55-13.18v3.39ZM778.05,660.97v2.64l2.18,1.51,2.18-.38,1.09-1.88-1.46-1.13h-1.82l-1.09-.75h-1.09ZM779.5,680.18v1.13l.73.38,1.46-.75.73-1.88-1.82-.38-1.09,1.51ZM781.69,628.97l-.36.38,2.18,3.39.36-2.26-1.09-1.51h-1.09ZM783.51,640.26l-1.46,1.88.73,1.13h1.09l1.46-1.13.36-2.26-2.18.38ZM783.51,683.19l-.36,2.26,1.82,1.51.36,3.39,2.18-1.51,1.46-4.52-.73-1.13-2.18-.75-2.55.75ZM785.33,649.3v1.88l1.46,1.13,2.18-.38,2.55-3.01-.73-4.14-5.46,4.52ZM789.7,631.98l-1.09.75v1.13l.73.75h.73l1.09-1.88-.36-.75h-1.09ZM791.52,665.49l5.1,1.88.73-.75-.36-1.13-2.18-1.13-3.28,1.13ZM795.89,642.9l-.73,9.04,2.55-1.88.36-7.16h-2.18ZM802.44,625.2l-1.46,3.77-4,2.26-.73,4.52,1.82,1.88,2.55-.75,1.82.75-.36-8.29,2.55-1.51.73-2.64v-.75l-.73-.38-2.18,1.13Z" style="fill:#f6f6f6;"/></g><g id="f"><g id="g"><polygon points="480.78 501.13 484.95 484.95 309.88 309.88 435.71 484.67 480.78 501.13"/><polygon points="528.33 471.72 484.95 484.95 309.88 309.88 486.32 434.06 528.33 471.72"/><polygon points="500.02 500.02 515.29 515.29 690.35 690.35 513.92 566.17 500.02 500.02"/><polygon points="498 460.43 515.29 515.29 690.35 690.35 566.17 513.92 498 460.43"/></g><g id="h"><g id="i"><polygon points="221.82 778.23 500.02 500.02 675.09 675.09 498.65 550.91 221.82 778.23" style="fill:#cb1a24;"/><polygon points="221.82 778.23 500.02 500.02 324.96 324.96 450.79 499.75 221.82 778.23" style="fill:#e9202a;"/><polygon points="778.23 221.82 500.02 500.02 324.96 324.96 501.39 449.14 778.23 221.82" style="fill:#cb1a24;"/><polygon points="778.23 221.82 500.02 500.02 675.09 675.09 550.91 498.65 778.23 221.82" style="fill:#e9202a;"/></g><g id="j"><polygon points="500.02 700.18 500.02 500.02 299.86 500.02 471.72 528.33 500.02 700.18" style="fill:#d81d27;"/><polygon points="700.18 500.02 500.02 500.02 500.02 700.18 528.33 528.33 700.18 500.02" style="fill:#e9202a;"/><polygon points="500.02 299.86 500.02 500.02 700.18 500.02 528.33 471.72 500.02 299.86" style="fill:#d81d27;"/><polygon points="299.86 500.02 500.02 500.02 500.02 299.86 471.72 471.72 299.86 500.02" style="fill:#e9202a;"/></g></g></g></svg>